# xmcd
#
# Track frame offsets:
#	150
#	18373
#	36523
#	51991
#	67185
#	84895
#	102328
#	117859
#	131891
#	152534
#	169746
#	184478
#	199029
#	212991
#	232709
#
# Disc length: 3342 seconds
#
# Revision: 1
# Processed by: cddbd v1.5.2PL0 Copyright (c) Steve Scherf et al.
# Submitted via: audiograbber 1.83.01
#
DISCID=d20d0c0f
DTITLE=Various Artist - The Essential New Country CD1
DYEAR=2010
DGENRE=Country
TTITLE0=Kenny Chesney - I Go Back
TTITLE1=Sara Evans - A Real Fine Place To Start
TTITLE2=Montgomery Gentry - If You Ever Stop Loving Me
TTITLE3=Carrie Underwood - Before He Cheats
TTITLE4=Phil Vassar - Just Another Day In Paradise
TTITLE5=Caroly Dawn Johnson - Simple Life
TTITLE6=Blackhawk - Goodbye Says It All
TTITLE7=Clint Black - A Better Man
TTITLE8=Joe Diffie - John Deere Green
TTITLE9=Kellie Pickler - Best Days Of Your Life
TTITLE10=Rodney Crowell - She's Crazy For Leavin'
TTITLE11=The Lost Trailors - Holler Back
TTITLE12=Ricochet - Daddy's Money
TTITLE13=Jason Michael Carroll - Alyssa Lies
TTITLE14=Lonestar - Amazed
EXTD=
EXTT0=
EXTT1=
EXTT2=
EXTT3=
EXTT4=
EXTT5=
EXTT6=
EXTT7=
EXTT8=
EXTT9=
EXTT10=
EXTT11=
EXTT12=
EXTT13=
EXTT14=
PLAYORDER=
